<svg width="130" height="63" viewBox="0 0 130 63" fill="none" xmlns="http://www.w3.org/2000/svg">
<path d="M100 0H10C4.47715 0 0 4.47715 0 10V13C0 18.5228 4.47715 23 10 23H100C105.523 23 110 18.5228 110 13V10C110 4.47715 105.523 0 100 0Z" fill="#090201"/>
<path d="M41.7784 8.5C41.6612 8.14134 41.5067 7.81996 41.315 7.53587C41.1268 7.24822 40.9013 7.0032 40.6385 6.80078C40.3793 6.59837 40.0845 6.44389 39.7543 6.33736C39.424 6.23082 39.0618 6.17756 38.6676 6.17756C38.0213 6.17756 37.4336 6.34446 36.9045 6.67827C36.3754 7.01207 35.9545 7.50391 35.642 8.15376C35.3295 8.80362 35.1733 9.60085 35.1733 10.5455C35.1733 11.4901 35.3313 12.2873 35.6474 12.9371C35.9634 13.587 36.3913 14.0788 36.9311 14.4126C37.4709 14.7464 38.0781 14.9134 38.7528 14.9134C39.3778 14.9134 39.9283 14.7802 40.4041 14.5138C40.8835 14.244 41.2564 13.864 41.5227 13.3739C41.7926 12.8803 41.9276 12.2997 41.9276 11.6321L42.3324 11.7173H39.0511V10.5455H43.206V11.7173C43.206 12.6158 43.0142 13.397 42.6307 14.0611C42.2507 14.7251 41.7251 15.2401 41.054 15.6058C40.3864 15.968 39.6193 16.1491 38.7528 16.1491C37.7869 16.1491 36.9382 15.9219 36.2067 15.4673C35.4787 15.0128 34.9105 14.3665 34.5021 13.5284C34.0973 12.6903 33.8949 11.696 33.8949 10.5455C33.8949 9.68253 34.0103 8.9066 34.2411 8.21768C34.4755 7.52521 34.8058 6.93572 35.2319 6.44922C35.658 5.96271 36.1623 5.58984 36.7447 5.33061C37.3271 5.07138 37.968 4.94176 38.6676 4.94176C39.2429 4.94176 39.7791 5.02876 40.2763 5.20277C40.777 5.37322 41.2227 5.61648 41.6133 5.93253C42.0075 6.24503 42.3359 6.61967 42.5987 7.05646C42.8615 7.4897 43.0426 7.97088 43.142 8.5H41.7784ZM45.8107 16V7.81818H47.0678V16H45.8107ZM46.4499 6.45455C46.2049 6.45455 45.9936 6.37109 45.8161 6.20419C45.642 6.03729 45.555 5.83665 45.555 5.60227C45.555 5.3679 45.642 5.16726 45.8161 5.00035C45.9936 4.83345 46.2049 4.75 46.4499 4.75C46.695 4.75 46.9045 4.83345 47.0785 5.00035C47.256 5.16726 47.3448 5.3679 47.3448 5.60227C47.3448 5.83665 47.256 6.03729 47.0785 6.20419C46.9045 6.37109 46.695 6.45455 46.4499 6.45455ZM52.9285 7.81818V8.88352H48.6885V7.81818H52.9285ZM49.9243 5.85795H51.1814V13.6562C51.1814 14.0114 51.2329 14.2777 51.3358 14.4553C51.4424 14.6293 51.5773 14.7464 51.7407 14.8068C51.9076 14.8636 52.0834 14.892 52.268 14.892C52.4065 14.892 52.5202 14.8849 52.6089 14.8707C52.6977 14.853 52.7687 14.8388 52.822 14.8281L53.0777 15.9574C52.9925 15.9893 52.8735 16.0213 52.7208 16.0533C52.5681 16.0888 52.3746 16.1065 52.1402 16.1065C51.7851 16.1065 51.4371 16.0302 51.0961 15.8775C50.7588 15.7248 50.4782 15.4922 50.2545 15.1797C50.0344 14.8672 49.9243 14.473 49.9243 13.9972V5.85795ZM59.2087 16V5.09091H60.5297V9.94886H66.3465V5.09091H67.6675V16H66.3465V11.1207H60.5297V16H59.2087ZM75.298 12.6548V7.81818H76.5551V16H75.298V14.6151H75.2128C75.021 15.0305 74.7227 15.3839 74.3179 15.6751C73.9131 15.9627 73.4017 16.1065 72.7838 16.1065C72.2725 16.1065 71.8179 15.9947 71.4202 15.771C71.0225 15.5437 70.71 15.2028 70.4827 14.7482C70.2554 14.2901 70.1418 13.7131 70.1418 13.017V7.81818H71.3989V12.9318C71.3989 13.5284 71.5658 14.0043 71.8996 14.3594C72.2369 14.7145 72.6666 14.892 73.1887 14.892C73.5012 14.892 73.819 14.8121 74.1421 14.6523C74.4688 14.4925 74.7423 14.2475 74.9624 13.9173C75.1862 13.587 75.298 13.1662 75.298 12.6548ZM79.0281 16V5.09091H80.2852V9.1179H80.3917C80.484 8.97585 80.6119 8.79474 80.7752 8.57457C80.9421 8.35085 81.18 8.15199 81.489 7.97798C81.8015 7.80043 82.2241 7.71165 82.7567 7.71165C83.4457 7.71165 84.0529 7.88388 84.5785 8.22834C85.104 8.5728 85.5142 9.06108 85.8089 9.69318C86.1037 10.3253 86.2511 11.071 86.2511 11.9304C86.2511 12.7969 86.1037 13.5479 85.8089 14.1836C85.5142 14.8157 85.1058 15.3058 84.5838 15.6538C84.0618 15.9982 83.4599 16.1705 82.7781 16.1705C82.2525 16.1705 81.8317 16.0835 81.5156 15.9094C81.1996 15.7319 80.9563 15.5312 80.7859 15.3075C80.6154 15.0803 80.484 14.892 80.3917 14.7429H80.2425V16H79.0281ZM80.2638 11.9091C80.2638 12.527 80.3544 13.0721 80.5355 13.5444C80.7166 14.0131 80.9812 14.3807 81.3292 14.647C81.6772 14.9098 82.1033 15.0412 82.6076 15.0412C83.1332 15.0412 83.5717 14.9027 83.9233 14.6257C84.2784 14.3452 84.5447 13.9687 84.7223 13.4964C84.9034 13.0206 84.994 12.4915 84.994 11.9091C84.994 11.3338 84.9052 10.8153 84.7276 10.3537C84.5536 9.88849 84.2891 9.52095 83.9339 9.25107C83.5824 8.97763 83.1403 8.84091 82.6076 8.84091C82.0962 8.84091 81.6665 8.97053 81.3185 9.22976C80.9705 9.48544 80.7077 9.84411 80.5302 10.3058C80.3526 10.7638 80.2638 11.2983 80.2638 11.9091Z" fill="white"/>
<path d="M23.9696 19.1231C27.8763 19.1231 31.0433 15.9561 31.0433 12.0494C31.0433 8.1427 27.8763 4.9757 23.9696 4.9757C20.0629 4.9757 16.8959 8.1427 16.8959 12.0494C16.8959 15.9561 20.0629 19.1231 23.9696 19.1231Z" fill="url(#paint0_linear_1_51)"/>
<path d="M28.2005 17.6377C27.0286 18.5121 25.5747 19.03 24 19.03C20.1175 19.03 16.97 15.8825 16.97 12C16.97 10.8915 17.2265 9.84312 17.6836 8.9106" stroke="#8251FE" stroke-width="1.14" stroke-linecap="round" stroke-linejoin="round"/>
<path d="M20.1502 6.11684C21.256 5.3918 22.5788 4.97 24 4.97C27.8825 4.97 31.03 8.11754 31.03 12C31.03 13.1176 30.7693 14.174 30.3053 15.1122" stroke="#8251FE" stroke-width="1.14" stroke-linecap="round" stroke-linejoin="round"/>
<path d="M27.8 11.62C27.8 11.0219 27.5811 10.4656 27.208 9.9955C27.3759 9.47566 27.5614 8.56252 27.116 7.84926C26.2606 7.84926 25.6986 8.43636 25.4303 8.80458C24.9888 8.66094 24.5065 8.58 24 8.58C23.4935 8.58 23.0112 8.66094 22.5697 8.80458C22.3014 8.43636 21.7398 7.84926 20.884 7.84926C20.3794 8.65714 20.6841 9.54026 20.8563 9.91266C20.4424 10.3994 20.2 10.9869 20.2 11.62C20.2 13.0564 21.4468 14.2572 23.1207 14.5749C22.6233 14.8306 22.2516 15.2954 22.1376 15.8593H21.6379C21.1451 15.8593 20.9535 15.6594 20.6872 15.3216C20.4242 14.9838 20.1411 14.7561 19.8014 14.6619C19.6182 14.6425 19.4951 14.782 19.6547 14.9055C20.1939 15.2726 20.2308 15.8737 20.447 16.267C20.6438 16.6212 21.047 16.94 21.503 16.94H22.1V19.198H25.9V16.2317C25.9 15.5066 25.4828 14.885 24.8793 14.5749C26.5532 14.2572 27.8 13.0564 27.8 11.62Z" fill="#8251FE"/>
<defs>
<linearGradient id="paint0_linear_1_51" x1="28.9731" y1="7.04746" x2="18.9688" y2="17.0517" gradientUnits="userSpaceOnUse">
<stop stop-color="#6560FE"/>
<stop offset="0.033" stop-color="#6F6AFE"/>
<stop offset="0.197" stop-color="#9A97FE"/>
<stop offset="0.362" stop-color="#BFBDFF"/>
<stop offset="0.525" stop-color="#DBDAFF"/>
<stop offset="0.687" stop-color="#EFEEFF"/>
<stop offset="0.846" stop-color="#FBFBFF"/>
<stop offset="1" stop-color="white"/>
</linearGradient>
</defs>
</svg>
